# Blender v2.72 (sub 0) OBJ File: 'mineCraftCube.blend'
# www.blender.org
mtllib mineCraftCube.mtl
o Cube
v 1.000000 -1.000000 -1.000000
v 1.000000 -1.000000 1.000000
v -1.000000 -1.000000 1.000000
v -1.000000 -1.000000 -1.000000
v 1.000000 1.000000 -1.000000
v 0.999999 1.000000 1.000001
v -1.000000 1.000000 1.000000
v -1.000000 1.000000 -1.000000
vt 0.500143 -0.000287
vt 0.499740 0.331944
vt 0.253207 0.331944
vt 0.498959 0.667361
vt 0.499040 1.000889
vt 0.251042 1.000695
vt 0.000152 0.667138
vt 0.250152 0.667133
vt 0.250147 0.334681
vt 0.749711 0.335283
vt 0.749711 0.666533
vt 0.999711 0.666533
vt 0.502577 0.334064
vt 0.502417 0.667111
vt 0.751375 0.666917
vt 0.250730 0.335196
vt 0.500730 0.335414
vt 0.500544 0.666624
vt 0.252794 -0.000287
vt 0.251042 0.667361
vt 0.000147 0.334687
vt 0.999711 0.335283
vt 0.751535 0.333870
vt 0.250567 0.666772
vn 0.000000 -1.000000 0.000000
vn 0.000000 1.000000 -0.000000
vn 1.000000 0.000000 0.000000
vn -0.000000 -0.000000 1.000000
vn -1.000000 -0.000000 -0.000000
vn 0.000000 0.000000 -1.000000
usemtl Material
s off
f 2/1/1 3/2/1 4/3/1
f 5/4/2 8/5/2 7/6/2
f 5/7/3 6/8/3 2/9/3
f 2/10/4 6/11/4 7/12/4
f 3/13/5 7/14/5 8/15/5
f 1/16/6 4/17/6 8/18/6
f 1/19/1 2/1/1 4/3/1
f 6/20/2 5/4/2 7/6/2
f 1/21/3 5/7/3 2/9/3
f 3/22/4 2/10/4 7/12/4
f 4/23/5 3/13/5 8/15/5
f 5/24/6 1/16/6 8/18/6
